<svg height="480pt" viewBox="0 0 480 480" width="480pt" xmlns="http://www.w3.org/2000/svg" xmlns:xlink="http://www.w3.org/1999/xlink"><linearGradient id="a"><stop offset="0" stop-color="#006df0"/><stop offset="1" stop-color="#00e7f0"/></linearGradient><linearGradient id="b" gradientUnits="userSpaceOnUse" x1="240" x2="240" xlink:href="#a" y1="-8" y2="512.064"/><linearGradient id="c" gradientUnits="userSpaceOnUse" x1="96" x2="96" xlink:href="#a" y1="-8" y2="512.064"/><linearGradient id="d" gradientUnits="userSpaceOnUse" x1="384" x2="384" xlink:href="#a" y1="-8" y2="512.064"/><path d="m440 0h-400c-22.082031.0273438-39.9726562 17.917969-40 40v400c.0273438 22.082031 17.917969 39.972656 40 40h400c22.082031-.027344 39.972656-17.917969 40-40v-400c-.027344-22.082031-17.917969-39.9726562-40-40zm24 440c0 13.253906-10.746094 24-24 24h-400c-13.253906 0-24-10.746094-24-24v-400c0-13.253906 10.746094-24 24-24h400c13.253906 0 24 10.746094 24 24zm0 0" fill="url(#b)"/><path d="m136 176h-80c-4.417969 0-8 3.582031-8 8v240c0 4.417969 3.582031 8 8 8h80c4.417969 0 8-3.582031 8-8v-240c0-4.417969-3.582031-8-8-8zm-8 240h-64v-224h64zm0 0" fill="url(#c)"/><path d="m280 48h-80c-4.417969 0-8 3.582031-8 8v368c0 4.417969 3.582031 8 8 8h80c4.417969 0 8-3.582031 8-8v-368c0-4.417969-3.582031-8-8-8zm-8 368h-64v-352h64zm0 0" fill="url(#b)"/><path d="m424 256h-80c-4.417969 0-8 3.582031-8 8v160c0 4.417969 3.582031 8 8 8h80c4.417969 0 8-3.582031 8-8v-160c0-4.417969-3.582031-8-8-8zm-8 160h-64v-144h64zm0 0" fill="url(#d)"/></svg>