<svg height="474pt" viewBox="0 0 474 474.816" width="474pt" xmlns="http://www.w3.org/2000/svg"><g fill="#1e81ce"><path d="m218.960938 277.105469-33.464844-42.121094c-50.070313-63.054687-60.167969-65.761719-135.039063-36.191406l-50.050781 19.757812 42.121094-33.460937c63.046875-50.074219 65.753906-60.167969 36.199218-135.050782l-19.765624-50.039062 33.464843 42.121094c50.0625 63.046875 60.167969 65.742187 135.039063 36.191406l50.046875-19.761719-42.121094 33.464844c-63.046875 50.074219-65.75 60.167969-36.199219 135.046875zm-103.199219-112.480469c20.078125 0 35.558593 8.550781 54.277343 27.757812-10.550781-37.421874-5.09375-57.773437 22.753907-84.910156-37.425781 10.550782-57.769531 5.09375-84.914063-22.753906 10.554688 37.425781 5.097656 57.777344-22.75 84.914062 9.933594-3.058593 20.238282-4.742187 30.632813-5.007812zm0 0"/><path d="m231.152344 474.816406-33.457032-42.128906c-30.605468-38.550781-35.144531-39.777344-80.953124-21.695312l-50.039063 19.761718 42.121094-33.464844c38.558593-30.625 39.777343-35.160156 21.695312-80.953124l-19.75-50.046876 33.453125 42.125c30.609375 38.554688 35.144532 39.777344 80.953125 21.699219l50.039063-19.761719-42.117188 33.464844c-38.5625 30.625-39.777344 35.160156-21.699218 80.953125zm-74.535156-90.96875c10.648437.066406 20.875 4.160156 28.628906 11.457032-3.265625-13.957032.683594-28.621094 10.515625-39.046876-13.949219 3.277344-28.609375-.648437-39.050781-10.457031 3.277343 13.949219-.652344 28.609375-10.472657 39.046875 3.425781-.636718 6.894531-.972656 10.378907-1zm0 0"/><path d="m431.152344 298.816406-33.457032-42.128906c-30.605468-38.542969-35.152343-39.785156-80.953124-21.695312l-50.039063 19.761718 42.121094-33.464844c38.558593-30.625 39.777343-35.160156 21.695312-80.953124l-19.75-50.046876 33.453125 42.125c30.609375 38.554688 35.144532 39.785157 80.953125 21.699219l50.039063-19.761719-42.117188 33.464844c-38.5625 30.625-39.777344 35.160156-21.699218 80.953125zm-74.535156-90.96875c10.648437.066406 20.875 4.160156 28.628906 11.457032-3.265625-13.957032.683594-28.621094 10.515625-39.046876-13.949219 3.277344-28.609375-.648437-39.050781-10.457031 3.277343 13.949219-.652344 28.609375-10.472657 39.046875 3.425781-.636718 6.894531-.972656 10.378907-1zm0 0"/></g></svg>