<svg width="24" height="24" xmlns="http://www.w3.org/2000/svg">

 <g>
  <title>background</title>
  <rect fill="none" id="canvas_background" height="402" width="582" y="-1" x="-1"/>
 </g>
 <g>
  <title>Layer 1</title>
  <path fill="#007fff" id="home" d="m23.6,10.3l-10.4,-7.9c-0.7,-0.5 -1.7,-0.5 -2.5,0l-10.3,7.9c-0.8,0.6 -0.4,1.7 0.6,1.7l1,0l0,6.1c0,2.1 1.8,3.9 4,3.9l2,0c0.6,0 1,-0.4 1,-1l0,-4.9c0,-1.1 0.9,-2.1 2,-2.1l2,0c1.1,0 2,1 2,2.1l0,4.9c0,0.5 0.4,1 1,1l2,0c2.2,0 4,-1.8 4,-3.9l0,-6.1l1,0c0.9,0 1.3,-1.1 0.6,-1.7z"/>
 </g>
</svg>